G75*
%MOIN*%
%OFA0B0*%
%FSLAX25Y25*%
%IPPOS*%
%LPD*%
%AMOC8*
5,1,8,0,0,1.08239X$1,22.5*
%
%ADD10C,0.05200*%
%ADD11C,0.04756*%
%ADD12C,0.01000*%
D10*
X0006500Y0016100D02*
X0011700Y0016100D01*
X0011700Y0026100D02*
X0006500Y0026100D01*
X0006500Y0036100D02*
X0011700Y0036100D01*
X0011700Y0046100D02*
X0006500Y0046100D01*
X0006500Y0056100D02*
X0011700Y0056100D01*
X0011700Y0066100D02*
X0006500Y0066100D01*
X0006500Y0076100D02*
X0011700Y0076100D01*
X0011700Y0086100D02*
X0006500Y0086100D01*
X0036285Y0011700D02*
X0036285Y0006500D01*
X0046285Y0006500D02*
X0046285Y0011700D01*
X0056285Y0011700D02*
X0056285Y0006500D01*
X0066285Y0006500D02*
X0066285Y0011700D01*
X0076285Y0011700D02*
X0076285Y0006500D01*
X0086285Y0006500D02*
X0086285Y0011700D01*
X0108685Y0016100D02*
X0113885Y0016100D01*
X0113885Y0026100D02*
X0108685Y0026100D01*
X0108685Y0036100D02*
X0113885Y0036100D01*
X0113885Y0046100D02*
X0108685Y0046100D01*
X0108685Y0056100D02*
X0113885Y0056100D01*
X0113885Y0066100D02*
X0108685Y0066100D01*
X0108685Y0076100D02*
X0113885Y0076100D01*
X0113885Y0086100D02*
X0108685Y0086100D01*
D11*
X0093206Y0078935D02*
X0088450Y0078935D01*
X0088450Y0071061D02*
X0093206Y0071061D01*
X0093206Y0063187D02*
X0088450Y0063187D01*
X0088450Y0055313D02*
X0093206Y0055313D01*
X0093206Y0047439D02*
X0088450Y0047439D01*
X0088450Y0039565D02*
X0093206Y0039565D01*
X0093206Y0031691D02*
X0088450Y0031691D01*
X0088450Y0023817D02*
X0093206Y0023817D01*
X0033332Y0023817D02*
X0028576Y0023817D01*
X0028576Y0031691D02*
X0033332Y0031691D01*
X0033332Y0039565D02*
X0028576Y0039565D01*
X0028576Y0047439D02*
X0033332Y0047439D01*
X0033332Y0055313D02*
X0028576Y0055313D01*
X0028576Y0063187D02*
X0033332Y0063187D01*
X0033332Y0071061D02*
X0028576Y0071061D01*
X0028576Y0078935D02*
X0033332Y0078935D01*
D12*
X0032785Y0079800D01*
X0018385Y0079800D01*
X0012085Y0086100D01*
X0009100Y0086100D01*
X0009100Y0076100D02*
X0015685Y0071700D01*
X0032785Y0071700D01*
X0033332Y0071061D01*
X0032785Y0063600D02*
X0033332Y0063187D01*
X0033685Y0062700D01*
X0033685Y0060900D01*
X0037285Y0057300D01*
X0037285Y0035700D01*
X0033685Y0032100D01*
X0033332Y0031691D01*
X0032785Y0031200D01*
X0016585Y0031200D01*
X0012085Y0026700D01*
X0009100Y0026100D01*
X0018385Y0023100D02*
X0012085Y0016800D01*
X0009100Y0016100D01*
X0018385Y0023100D02*
X0032785Y0023100D01*
X0033332Y0023817D01*
X0033685Y0023100D01*
X0051785Y0023100D01*
X0065285Y0009600D01*
X0066085Y0009600D01*
X0066285Y0009100D01*
X0086285Y0009100D02*
X0086785Y0009600D01*
X0086785Y0022200D01*
X0087685Y0023100D01*
X0088450Y0023817D01*
X0088585Y0024000D01*
X0111085Y0024000D01*
X0111285Y0026100D01*
X0111085Y0025800D01*
X0111085Y0024000D01*
X0111085Y0016800D01*
X0111285Y0016100D01*
X0111285Y0036100D02*
X0111085Y0036600D01*
X0108385Y0039300D01*
X0088585Y0039300D01*
X0088450Y0039565D01*
X0088585Y0047400D02*
X0088450Y0047439D01*
X0088585Y0047400D02*
X0110185Y0047400D01*
X0111085Y0046500D01*
X0111285Y0046100D01*
X0111085Y0055500D02*
X0111285Y0056100D01*
X0111085Y0055500D02*
X0088585Y0055500D01*
X0088450Y0055313D01*
X0088450Y0063187D02*
X0088585Y0063600D01*
X0109285Y0063600D01*
X0111085Y0065400D01*
X0111285Y0066100D01*
X0107485Y0071700D02*
X0111085Y0075300D01*
X0111285Y0076100D01*
X0107485Y0071700D02*
X0088585Y0071700D01*
X0088450Y0071061D01*
X0088450Y0078935D02*
X0088585Y0079800D01*
X0104785Y0079800D01*
X0111085Y0086100D01*
X0111285Y0086100D01*
X0088450Y0031691D02*
X0088585Y0031200D01*
X0088585Y0024000D01*
X0033332Y0039565D02*
X0032785Y0039300D01*
X0014785Y0039300D01*
X0012085Y0036600D01*
X0009100Y0036100D01*
X0009100Y0046100D02*
X0012085Y0046500D01*
X0012985Y0047400D01*
X0032785Y0047400D01*
X0033332Y0047439D01*
X0033332Y0055313D02*
X0032785Y0055500D01*
X0012085Y0055500D01*
X0009100Y0056100D01*
X0013885Y0063600D02*
X0012085Y0065400D01*
X0009100Y0066100D01*
X0013885Y0063600D02*
X0032785Y0063600D01*
M02*
